<svg width="400" height="400" viewBox="0 0 400 400" xmlns="http://www.w3.org/2000/svg">
  <!-- Background circle -->
  <circle cx="200" cy="200" r="200" fill="#e8f4f8"/>
  
  <!-- Soft gradient background -->
  <defs>
    <radialGradient id="bgGradient" cx="0.5" cy="0.3">
      <stop offset="0%" style="stop-color:#f0f9ff;stop-opacity:1" />
      <stop offset="100%" style="stop-color:#bfdbfe;stop-opacity:1" />
    </radialGradient>
    
    <!-- Skin gradient -->
    <radialGradient id="skinGradient" cx="0.3" cy="0.3">
      <stop offset="0%" style="stop-color:#d4a574;stop-opacity:1" />
      <stop offset="100%" style="stop-color:#b8956a;stop-opacity:1" />
    </radialGradient>
    
    <!-- Turban gradient -->
    <linearGradient id="turbanGradient" x1="0%" y1="0%" x2="100%" y2="100%">
      <stop offset="0%" style="stop-color:#3b82f6;stop-opacity:1" />
      <stop offset="50%" style="stop-color:#1d4ed8;stop-opacity:1" />
      <stop offset="100%" style="stop-color:#1e40af;stop-opacity:1" />
    </linearGradient>
    
    <!-- Beard gradient -->
    <radialGradient id="beardGradient" cx="0.5" cy="0.2">
      <stop offset="0%" style="stop-color:#4a4a4a;stop-opacity:1" />
      <stop offset="100%" style="stop-color:#2d2d2d;stop-opacity:1" />
    </radialGradient>
  </defs>
  
  <circle cx="200" cy="200" r="190" fill="url(#bgGradient)"/>
  
  <!-- Shoulders/clothing -->
  <ellipse cx="200" cy="380" rx="120" ry="60" fill="#4f46e5" opacity="0.8"/>
  <rect x="80" y="340" width="240" height="60" rx="30" fill="#6366f1"/>
  
  <!-- Neck -->
  <ellipse cx="200" cy="320" rx="25" ry="30" fill="url(#skinGradient)"/>
  
  <!-- Face shape -->
  <ellipse cx="200" cy="250" rx="80" ry="90" fill="url(#skinGradient)"/>
  
  <!-- Turban base -->
  <ellipse cx="200" cy="180" rx="95" ry="80" fill="url(#turbanGradient)"/>
  
  <!-- Turban details -->
  <ellipse cx="200" cy="160" rx="85" ry="60" fill="url(#turbanGradient)" opacity="0.9"/>
  <ellipse cx="200" cy="145" rx="75" ry="45" fill="url(#turbanGradient)" opacity="0.8"/>
  
  <!-- Turban center piece -->
  <ellipse cx="200" cy="140" rx="15" ry="20" fill="#1e40af"/>
  <ellipse cx="200" cy="135" rx="8" ry="12" fill="#3b82f6"/>
  
  <!-- Turban folds -->
  <path d="M130 170 Q160 150 190 160 Q220 150 250 170" stroke="#1e40af" stroke-width="3" fill="none" opacity="0.7"/>
  <path d="M140 190 Q170 175 200 185 Q230 175 260 190" stroke="#1e40af" stroke-width="2" fill="none" opacity="0.5"/>
  
  <!-- Eyes -->
  <ellipse cx="175" cy="230" rx="12" ry="8" fill="#ffffff"/>
  <ellipse cx="225" cy="230" rx="12" ry="8" fill="#ffffff"/>
  <ellipse cx="175" cy="232" rx="8" ry="6" fill="#2d1810"/>
  <ellipse cx="225" cy="232" rx="8" ry="6" fill="#2d1810"/>
  <ellipse cx="177" cy="230" rx="3" ry="3" fill="#ffffff"/>
  <ellipse cx="227" cy="230" rx="3" ry="3" fill="#ffffff"/>
  
  <!-- Eyebrows -->
  <path d="M165 215 Q175 210 185 215" stroke="#4a4a4a" stroke-width="4" stroke-linecap="round"/>
  <path d="M215 215 Q225 210 235 215" stroke="#4a4a4a" stroke-width="4" stroke-linecap="round"/>
  
  <!-- Nose -->
  <ellipse cx="200" cy="250" rx="6" ry="12" fill="#c49970" opacity="0.8"/>
  <ellipse cx="197" cy="255" rx="2" ry="3" fill="#b8956a"/>
  <ellipse cx="203" cy="255" rx="2" ry="3" fill="#b8956a"/>
  
  <!-- Mouth -->
  <path d="M190 275 Q200 285 210 275" stroke="#c49970" stroke-width="3" stroke-linecap="round" fill="none"/>
  
  <!-- Beard -->
  <ellipse cx="200" cy="300" rx="70" ry="50" fill="url(#beardGradient)"/>
  <ellipse cx="200" cy="320" rx="60" ry="35" fill="url(#beardGradient)" opacity="0.9"/>
  <ellipse cx="200" cy="335" rx="45" ry="25" fill="url(#beardGradient)" opacity="0.8"/>
  
  <!-- Beard texture -->
  <path d="M150 290 Q160 295 155 305 Q165 300 170 310" stroke="#3d3d3d" stroke-width="1.5" fill="none" opacity="0.6"/>
  <path d="M180 295 Q185 300 180 310 Q190 305 195 315" stroke="#3d3d3d" stroke-width="1.5" fill="none" opacity="0.6"/>
  <path d="M205 295 Q210 300 205 310 Q215 305 220 315" stroke="#3d3d3d" stroke-width="1.5" fill="none" opacity="0.6"/>
  <path d="M230 295 Q235 300 230 310 Q240 305 245 315" stroke="#3d3d3d" stroke-width="1.5" fill="none" opacity="0.6"/>
  
  <!-- Mustache -->
  <ellipse cx="185" cy="265" rx="15" ry="8" fill="url(#beardGradient)"/>
  <ellipse cx="215" cy="265" rx="15" ry="8" fill="url(#beardGradient)"/>
  
  <!-- Soft highlights -->
  <ellipse cx="180" cy="220" rx="25" ry="30" fill="#ffffff" opacity="0.1"/>
  <ellipse cx="160" cy="160" rx="20" ry="25" fill="#ffffff" opacity="0.15"/>
  
  <!-- Gentle shadows -->
  <ellipse cx="220" cy="270" rx="30" ry="35" fill="#000000" opacity="0.05"/>
  <ellipse cx="240" cy="190" rx="20" ry="30" fill="#000000" opacity="0.08"/>
</svg>